<svg xmlns="http://www.w3.org/2000/svg"  viewBox="0 0 50 50" width="50px" height="50px"><path d="M30 26v9h-4.18c.12-.38.18-.78.18-1.2V26H30zM30 37v9H17c-1.65 0-3-1.35-3-3v-5h7.8c1.03 0 1.98-.37 2.71-1H30zM32 26H48V35H32zM32 37h16v6c0 1.65-1.35 3-3 3H32V37zM30 15v9h-4v-7.8c0-.42-.06-.82-.18-1.2H30zM32 15H48V24H32zM30 4v9h-5.49c-.73-.63-1.68-1-2.71-1H14V7c0-1.65 1.35-3 3-3H30zM48 7v6H32V4h13C46.65 4 48 5.35 48 7zM21.8 36H4.2C2.985 36 2 35.015 2 33.8V16.2C2 14.985 2.985 14 4.2 14h17.6c1.215 0 2.2.985 2.2 2.2v17.6C24 35.015 23.015 36 21.8 36zM7.968 19l3.494 5.978L7.631 31h2.863l2.521-4.716L15.548 31h2.821L14.6 25l3.685-6H15.61l-2.455 4.505L10.832 19H7.968z"/></svg>